<?xml version="1.0" encoding="utf-8"?>
<!-- Generator: Adobe Illustrator 25.2.3, SVG Export Plug-In . SVG Version: 6.00 Build 0)  -->
<svg version="1.1" id="Layer_1" xmlns="http://www.w3.org/2000/svg" xmlns:xlink="http://www.w3.org/1999/xlink" x="0px" y="0px"
	 viewBox="0 0 121.2 104.1" style="enable-background:new 0 0 121.2 104.1;" xml:space="preserve">
<style type="text/css">
	.st0{fill:#8247E5;}
</style>
<g id="Mask_Group_3">
	<path id="Path_151" class="st0" d="M91.5,31.8c-2.4-1.3-5.2-1.3-7.6,0L66.4,41.9l-11.9,6.6L37.1,58.6c-2.4,1.3-5.2,1.3-7.6,0
		l-13.9-7.9c-2.3-1.3-3.7-3.7-3.8-6.4V28.7c0-2.7,1.4-5.1,3.8-6.4l13.6-7.7c2.4-1.3,5.2-1.3,7.6,0l13.6,7.7c2.3,1.3,3.7,3.7,3.8,6.4
		v10.1L66.2,32V21.9c0-2.7-1.4-5.1-3.8-6.4L37.1,1c-2.4-1.3-5.2-1.3-7.6,0L3.8,15.5C1.4,16.8,0,19.2,0,21.9v29.3
		c0,2.7,1.4,5.1,3.8,6.4L29.5,72c2.4,1.3,5.2,1.3,7.6,0l17.4-9.9l11.9-6.8l17.4-9.9c2.4-1.3,5.2-1.3,7.6,0l13.6,7.7
		c2.3,1.3,3.7,3.7,3.8,6.4v15.6c0,2.7-1.4,5.1-3.8,6.4l-13.6,7.9c-2.4,1.3-5.2,1.3-7.6,0l-13.6-7.7c-2.3-1.3-3.7-3.7-3.8-6.4V65.2
		L54.6,72v10.1c0,2.7,1.4,5.1,3.8,6.4l25.7,14.5c2.4,1.3,5.2,1.3,7.6,0l25.7-14.5c2.3-1.3,3.7-3.7,3.8-6.4V52.9
		c0-2.7-1.4-5.1-3.8-6.4L91.5,31.8z"/>
</g>
</svg>
